<mxfile host="app.diagrams.net" agent="Mozilla/5.0 (Windows NT 10.0; Win64; x64) AppleWebKit/537.36 (KHTML, like Gecko) Chrome/130.0.0.0 Safari/537.36" version="24.8.1">
  <diagram id="fGawbNd4KtlSUOCiB4XX" name="Page-1">
    <mxGraphModel dx="1221" dy="725" grid="0" gridSize="10" guides="1" tooltips="1" connect="1" arrows="1" fold="1" page="1" pageScale="1" pageWidth="550" pageHeight="550" background="none" math="0" shadow="0">
      <root>
        <mxCell id="0" />
        <mxCell id="1" parent="0" />
        <mxCell id="2zhfJ7ULheB4Zjnng153-5" value="Reader" style="swimlane;fontStyle=1;childLayout=stackLayout;horizontal=1;startSize=26;fillColor=#d5e8d4;horizontalStack=0;resizeParent=1;resizeParentMax=0;resizeLast=0;collapsible=1;marginBottom=0;whiteSpace=wrap;html=1;strokeColor=#82b366;swimlaneFillColor=default;rounded=1;glass=0;shadow=1;textShadow=0;align=center;fontSize=14;labelBorderColor=none;fontFamily=Helvetica;" vertex="1" parent="1">
          <mxGeometry x="25" y="57" width="140" height="156" as="geometry" />
        </mxCell>
        <mxCell id="2zhfJ7ULheB4Zjnng153-6" value="(PK) reader_id" style="text;strokeColor=none;fillColor=none;align=left;verticalAlign=top;spacingLeft=4;spacingRight=4;overflow=hidden;rotatable=0;points=[[0,0.5],[1,0.5]];portConstraint=eastwest;whiteSpace=wrap;html=1;" vertex="1" parent="2zhfJ7ULheB4Zjnng153-5">
          <mxGeometry y="26" width="140" height="26" as="geometry" />
        </mxCell>
        <mxCell id="2zhfJ7ULheB4Zjnng153-10" value="name" style="text;strokeColor=none;fillColor=none;align=left;verticalAlign=top;spacingLeft=4;spacingRight=4;overflow=hidden;rotatable=0;points=[[0,0.5],[1,0.5]];portConstraint=eastwest;whiteSpace=wrap;html=1;" vertex="1" parent="2zhfJ7ULheB4Zjnng153-5">
          <mxGeometry y="52" width="140" height="26" as="geometry" />
        </mxCell>
        <mxCell id="2zhfJ7ULheB4Zjnng153-8" value="email" style="text;strokeColor=none;fillColor=none;align=left;verticalAlign=top;spacingLeft=4;spacingRight=4;overflow=hidden;rotatable=0;points=[[0,0.5],[1,0.5]];portConstraint=eastwest;whiteSpace=wrap;html=1;" vertex="1" parent="2zhfJ7ULheB4Zjnng153-5">
          <mxGeometry y="78" width="140" height="26" as="geometry" />
        </mxCell>
        <mxCell id="2zhfJ7ULheB4Zjnng153-11" value="phone_number" style="text;strokeColor=none;fillColor=none;align=left;verticalAlign=top;spacingLeft=4;spacingRight=4;overflow=hidden;rotatable=0;points=[[0,0.5],[1,0.5]];portConstraint=eastwest;whiteSpace=wrap;html=1;" vertex="1" parent="2zhfJ7ULheB4Zjnng153-5">
          <mxGeometry y="104" width="140" height="26" as="geometry" />
        </mxCell>
        <mxCell id="2zhfJ7ULheB4Zjnng153-9" value="membership_date" style="text;strokeColor=none;fillColor=none;align=left;verticalAlign=top;spacingLeft=4;spacingRight=4;overflow=hidden;rotatable=0;points=[[0,0.5],[1,0.5]];portConstraint=eastwest;whiteSpace=wrap;html=1;" vertex="1" parent="2zhfJ7ULheB4Zjnng153-5">
          <mxGeometry y="130" width="140" height="26" as="geometry" />
        </mxCell>
        <mxCell id="2zhfJ7ULheB4Zjnng153-32" style="edgeStyle=orthogonalEdgeStyle;rounded=0;orthogonalLoop=1;jettySize=auto;html=1;strokeColor=default;endArrow=none;endFill=0;strokeWidth=0.5;" edge="1" parent="1" source="2zhfJ7ULheB4Zjnng153-12" target="2zhfJ7ULheB4Zjnng153-26">
          <mxGeometry relative="1" as="geometry" />
        </mxCell>
        <mxCell id="2zhfJ7ULheB4Zjnng153-33" value="1" style="edgeLabel;html=1;align=center;verticalAlign=middle;resizable=0;points=[];labelBackgroundColor=none;fontSize=14;fontStyle=0" vertex="1" connectable="0" parent="2zhfJ7ULheB4Zjnng153-32">
          <mxGeometry x="0.8556" relative="1" as="geometry">
            <mxPoint x="-7" y="-9" as="offset" />
          </mxGeometry>
        </mxCell>
        <mxCell id="2zhfJ7ULheB4Zjnng153-34" value="*" style="edgeLabel;html=1;align=center;verticalAlign=middle;resizable=0;points=[];labelBackgroundColor=none;fontSize=14;fontStyle=1" vertex="1" connectable="0" parent="2zhfJ7ULheB4Zjnng153-32">
          <mxGeometry x="-0.9178" y="1" relative="1" as="geometry">
            <mxPoint y="-10" as="offset" />
          </mxGeometry>
        </mxCell>
        <mxCell id="2zhfJ7ULheB4Zjnng153-35" style="edgeStyle=orthogonalEdgeStyle;rounded=0;orthogonalLoop=1;jettySize=auto;html=1;endArrow=none;endFill=0;strokeWidth=0.5;" edge="1" parent="1" source="2zhfJ7ULheB4Zjnng153-12" target="2zhfJ7ULheB4Zjnng153-19">
          <mxGeometry relative="1" as="geometry" />
        </mxCell>
        <mxCell id="2zhfJ7ULheB4Zjnng153-36" value="1" style="edgeLabel;html=1;align=center;verticalAlign=middle;resizable=0;points=[];labelBackgroundColor=none;fontSize=14;fontStyle=0" vertex="1" connectable="0" parent="2zhfJ7ULheB4Zjnng153-35">
          <mxGeometry x="-0.8667" relative="1" as="geometry">
            <mxPoint x="10" y="-3" as="offset" />
          </mxGeometry>
        </mxCell>
        <mxCell id="2zhfJ7ULheB4Zjnng153-37" value="*" style="edgeLabel;html=1;align=center;verticalAlign=middle;resizable=0;points=[];labelBackgroundColor=none;fontSize=14;fontStyle=1" vertex="1" connectable="0" parent="2zhfJ7ULheB4Zjnng153-35">
          <mxGeometry x="0.9061" relative="1" as="geometry">
            <mxPoint x="10" y="8" as="offset" />
          </mxGeometry>
        </mxCell>
        <mxCell id="2zhfJ7ULheB4Zjnng153-12" value="Book" style="swimlane;fontStyle=1;childLayout=stackLayout;horizontal=1;startSize=26;fillColor=#d5e8d4;horizontalStack=0;resizeParent=1;resizeParentMax=0;resizeLast=0;collapsible=1;marginBottom=0;whiteSpace=wrap;html=1;strokeColor=#82b366;swimlaneFillColor=default;rounded=1;glass=0;shadow=1;textShadow=0;align=center;fontSize=14;labelBorderColor=none;fontFamily=Helvetica;" vertex="1" parent="1">
          <mxGeometry x="385" y="338" width="140" height="156" as="geometry" />
        </mxCell>
        <mxCell id="2zhfJ7ULheB4Zjnng153-13" value="(PK) book_id" style="text;strokeColor=none;fillColor=none;align=left;verticalAlign=top;spacingLeft=4;spacingRight=4;overflow=hidden;rotatable=0;points=[[0,0.5],[1,0.5]];portConstraint=eastwest;whiteSpace=wrap;html=1;" vertex="1" parent="2zhfJ7ULheB4Zjnng153-12">
          <mxGeometry y="26" width="140" height="26" as="geometry" />
        </mxCell>
        <mxCell id="2zhfJ7ULheB4Zjnng153-16" value="(FK) library_id" style="text;strokeColor=none;fillColor=none;align=left;verticalAlign=top;spacingLeft=4;spacingRight=4;overflow=hidden;rotatable=0;points=[[0,0.5],[1,0.5]];portConstraint=eastwest;whiteSpace=wrap;html=1;" vertex="1" parent="2zhfJ7ULheB4Zjnng153-12">
          <mxGeometry y="52" width="140" height="26" as="geometry" />
        </mxCell>
        <mxCell id="2zhfJ7ULheB4Zjnng153-18" value="title" style="text;strokeColor=none;fillColor=none;align=left;verticalAlign=top;spacingLeft=4;spacingRight=4;overflow=hidden;rotatable=0;points=[[0,0.5],[1,0.5]];portConstraint=eastwest;whiteSpace=wrap;html=1;" vertex="1" parent="2zhfJ7ULheB4Zjnng153-12">
          <mxGeometry y="78" width="140" height="26" as="geometry" />
        </mxCell>
        <mxCell id="2zhfJ7ULheB4Zjnng153-14" value="&lt;div&gt;author&lt;/div&gt;" style="text;strokeColor=none;fillColor=none;align=left;verticalAlign=top;spacingLeft=4;spacingRight=4;overflow=hidden;rotatable=0;points=[[0,0.5],[1,0.5]];portConstraint=eastwest;whiteSpace=wrap;html=1;" vertex="1" parent="2zhfJ7ULheB4Zjnng153-12">
          <mxGeometry y="104" width="140" height="26" as="geometry" />
        </mxCell>
        <mxCell id="2zhfJ7ULheB4Zjnng153-15" value="isbn" style="text;strokeColor=none;fillColor=none;align=left;verticalAlign=top;spacingLeft=4;spacingRight=4;overflow=hidden;rotatable=0;points=[[0,0.5],[1,0.5]];portConstraint=eastwest;whiteSpace=wrap;html=1;" vertex="1" parent="2zhfJ7ULheB4Zjnng153-12">
          <mxGeometry y="130" width="140" height="26" as="geometry" />
        </mxCell>
        <mxCell id="2zhfJ7ULheB4Zjnng153-38" style="edgeStyle=orthogonalEdgeStyle;rounded=0;orthogonalLoop=1;jettySize=auto;html=1;endArrow=none;endFill=0;strokeWidth=0.5;" edge="1" parent="1" source="2zhfJ7ULheB4Zjnng153-19" target="2zhfJ7ULheB4Zjnng153-5">
          <mxGeometry relative="1" as="geometry" />
        </mxCell>
        <mxCell id="2zhfJ7ULheB4Zjnng153-39" value="*" style="edgeLabel;html=1;align=center;verticalAlign=middle;resizable=0;points=[];labelBackgroundColor=none;fontSize=14;fontStyle=1" vertex="1" connectable="0" parent="2zhfJ7ULheB4Zjnng153-38">
          <mxGeometry x="-0.8961" y="-1" relative="1" as="geometry">
            <mxPoint y="-7" as="offset" />
          </mxGeometry>
        </mxCell>
        <mxCell id="2zhfJ7ULheB4Zjnng153-40" value="1" style="edgeLabel;html=1;align=center;verticalAlign=middle;resizable=0;points=[];labelBackgroundColor=none;fontSize=14;fontStyle=0" vertex="1" connectable="0" parent="2zhfJ7ULheB4Zjnng153-38">
          <mxGeometry x="0.9273" relative="1" as="geometry">
            <mxPoint y="-8" as="offset" />
          </mxGeometry>
        </mxCell>
        <mxCell id="2zhfJ7ULheB4Zjnng153-19" value="Loan" style="swimlane;fontStyle=1;childLayout=stackLayout;horizontal=1;startSize=26;fillColor=#d5e8d4;horizontalStack=0;resizeParent=1;resizeParentMax=0;resizeLast=0;collapsible=1;marginBottom=0;whiteSpace=wrap;html=1;strokeColor=#82b366;gradientColor=none;swimlaneFillColor=default;rounded=1;glass=0;shadow=1;textShadow=0;align=center;fontSize=14;labelBorderColor=none;fontFamily=Helvetica;" vertex="1" parent="1">
          <mxGeometry x="385" y="57" width="140" height="156" as="geometry" />
        </mxCell>
        <mxCell id="2zhfJ7ULheB4Zjnng153-20" value="(PK) loan_id" style="text;strokeColor=none;fillColor=none;align=left;verticalAlign=top;spacingLeft=4;spacingRight=4;overflow=hidden;rotatable=0;points=[[0,0.5],[1,0.5]];portConstraint=eastwest;whiteSpace=wrap;html=1;" vertex="1" parent="2zhfJ7ULheB4Zjnng153-19">
          <mxGeometry y="26" width="140" height="26" as="geometry" />
        </mxCell>
        <mxCell id="2zhfJ7ULheB4Zjnng153-21" value="(FK) reader_id" style="text;strokeColor=none;fillColor=none;align=left;verticalAlign=top;spacingLeft=4;spacingRight=4;overflow=hidden;rotatable=0;points=[[0,0.5],[1,0.5]];portConstraint=eastwest;whiteSpace=wrap;html=1;" vertex="1" parent="2zhfJ7ULheB4Zjnng153-19">
          <mxGeometry y="52" width="140" height="26" as="geometry" />
        </mxCell>
        <mxCell id="2zhfJ7ULheB4Zjnng153-25" value="(FK) book_id" style="text;strokeColor=none;fillColor=none;align=left;verticalAlign=top;spacingLeft=4;spacingRight=4;overflow=hidden;rotatable=0;points=[[0,0.5],[1,0.5]];portConstraint=eastwest;whiteSpace=wrap;html=1;" vertex="1" parent="2zhfJ7ULheB4Zjnng153-19">
          <mxGeometry y="78" width="140" height="26" as="geometry" />
        </mxCell>
        <mxCell id="2zhfJ7ULheB4Zjnng153-22" value="loan_date" style="text;strokeColor=none;fillColor=none;align=left;verticalAlign=top;spacingLeft=4;spacingRight=4;overflow=hidden;rotatable=0;points=[[0,0.5],[1,0.5]];portConstraint=eastwest;whiteSpace=wrap;html=1;" vertex="1" parent="2zhfJ7ULheB4Zjnng153-19">
          <mxGeometry y="104" width="140" height="26" as="geometry" />
        </mxCell>
        <mxCell id="2zhfJ7ULheB4Zjnng153-23" value="&lt;div&gt;return_date&lt;/div&gt;" style="text;strokeColor=none;fillColor=none;align=left;verticalAlign=top;spacingLeft=4;spacingRight=4;overflow=hidden;rotatable=0;points=[[0,0.5],[1,0.5]];portConstraint=eastwest;whiteSpace=wrap;html=1;" vertex="1" parent="2zhfJ7ULheB4Zjnng153-19">
          <mxGeometry y="130" width="140" height="26" as="geometry" />
        </mxCell>
        <mxCell id="2zhfJ7ULheB4Zjnng153-26" value="Library" style="swimlane;fontStyle=1;childLayout=stackLayout;horizontal=1;startSize=26;fillColor=#d5e8d4;horizontalStack=0;resizeParent=1;resizeParentMax=0;resizeLast=0;collapsible=1;marginBottom=0;whiteSpace=wrap;html=1;strokeColor=#82b366;swimlaneFillColor=default;rounded=1;glass=0;shadow=1;textShadow=0;align=center;fontSize=14;labelBorderColor=none;fontFamily=Helvetica;" vertex="1" parent="1">
          <mxGeometry x="25" y="364" width="140" height="104" as="geometry" />
        </mxCell>
        <mxCell id="2zhfJ7ULheB4Zjnng153-27" value="(PK) library_id" style="text;strokeColor=none;fillColor=none;align=left;verticalAlign=top;spacingLeft=4;spacingRight=4;overflow=hidden;rotatable=0;points=[[0,0.5],[1,0.5]];portConstraint=eastwest;whiteSpace=wrap;html=1;" vertex="1" parent="2zhfJ7ULheB4Zjnng153-26">
          <mxGeometry y="26" width="140" height="26" as="geometry" />
        </mxCell>
        <mxCell id="2zhfJ7ULheB4Zjnng153-41" value="name" style="text;strokeColor=none;fillColor=none;align=left;verticalAlign=top;spacingLeft=4;spacingRight=4;overflow=hidden;rotatable=0;points=[[0,0.5],[1,0.5]];portConstraint=eastwest;whiteSpace=wrap;html=1;" vertex="1" parent="2zhfJ7ULheB4Zjnng153-26">
          <mxGeometry y="52" width="140" height="26" as="geometry" />
        </mxCell>
        <mxCell id="2zhfJ7ULheB4Zjnng153-30" value="address" style="text;strokeColor=none;fillColor=none;align=left;verticalAlign=top;spacingLeft=4;spacingRight=4;overflow=hidden;rotatable=0;points=[[0,0.5],[1,0.5]];portConstraint=eastwest;whiteSpace=wrap;html=1;" vertex="1" parent="2zhfJ7ULheB4Zjnng153-26">
          <mxGeometry y="78" width="140" height="26" as="geometry" />
        </mxCell>
      </root>
    </mxGraphModel>
  </diagram>
</mxfile>
